<svg width="211" height="67" viewBox="0 0 211 67" fill="none" xmlns="http://www.w3.org/2000/svg">
<path d="M21.0781 24.4023L10.9883 0.8125H0.160156L16.0156 33.8594L16.0508 52H25.8945L25.9297 34.2812L42.0312 0.8125H31.168L21.0781 24.4023Z" fill="#0657F9"/>
<path d="M82.5664 30.168V22.7148C82.5664 20.3945 82.3438 18.2031 81.8984 16.1406C81.4766 14.0781 80.8555 12.1797 80.0352 10.4453C79.2852 8.92188 78.3828 7.52734 77.3281 6.26172C76.2969 4.99609 75.0898 3.91797 73.707 3.02734C72.3242 2.08984 70.7656 1.375 69.0312 0.882812C67.3203 0.367187 65.4805 0.109375 63.5117 0.109375C61.5664 0.109375 59.7617 0.355469 58.0977 0.847656C56.4336 1.33984 54.9336 2.04297 53.5977 2.95703C52.2383 3.89453 51.0312 5.01953 49.9766 6.33203C48.9453 7.64453 48.0664 9.10938 47.3398 10.7266C46.5898 12.4375 46.0156 14.3008 45.6172 16.3164C45.2422 18.332 45.0547 20.4648 45.0547 22.7148V30.168C45.0547 32.2773 45.2188 34.2812 45.5469 36.1797C45.8984 38.0781 46.4023 39.8359 47.0586 41.4531C47.7852 43.2109 48.6875 44.793 49.7656 46.1992C50.8438 47.582 52.0625 48.7656 53.4219 49.75C54.8047 50.6875 56.3398 51.4141 58.0273 51.9297C59.7148 52.4453 61.5547 52.7031 63.5469 52.7031C65.4219 52.7031 67.168 52.4688 68.7852 52C70.4258 51.5547 71.9258 50.9219 73.2852 50.1016C74.7852 49.1641 76.1211 47.9922 77.293 46.5859C78.4648 45.1797 79.4492 43.6328 80.2461 41.9453C80.9961 40.2578 81.5703 38.4297 81.9688 36.4609C82.3672 34.4688 82.5664 32.3711 82.5664 30.168ZM72.5469 22.6445V30.168C72.5469 31.4336 72.4766 32.6523 72.3359 33.8242C72.2188 34.9961 72.0312 36.0742 71.7734 37.0586C71.4453 38.3242 71 39.4609 70.4375 40.4688C69.8984 41.4531 69.2305 42.2734 68.4336 42.9297C67.8008 43.4688 67.0742 43.8789 66.2539 44.1602C65.4336 44.4414 64.5312 44.582 63.5469 44.582C62.5156 44.582 61.5898 44.4297 60.7695 44.125C59.9727 43.8203 59.2578 43.3867 58.625 42.8242C57.9453 42.1914 57.3477 41.3711 56.832 40.3633C56.3398 39.332 55.9648 38.1953 55.707 36.9531C55.4727 35.9688 55.3086 34.9023 55.2148 33.7539C55.1211 32.6055 55.0742 31.4102 55.0742 30.168V22.6445C55.0742 21.332 55.1211 20.0781 55.2148 18.8828C55.332 17.6875 55.5078 16.5859 55.7422 15.5781C56.0469 14.2656 56.4688 13.1172 57.0078 12.1328C57.5703 11.1484 58.25 10.3281 59.0469 9.67188C59.6328 9.22656 60.2891 8.88672 61.0156 8.65234C61.7656 8.41797 62.5977 8.30078 63.5117 8.30078C64.4727 8.30078 65.3398 8.42969 66.1133 8.6875C66.9102 8.94531 67.625 9.30859 68.2578 9.77734C69.0547 10.4102 69.7461 11.2305 70.332 12.2383C70.918 13.2227 71.3867 14.3477 71.7383 15.6133C72.0195 16.6211 72.2188 17.7227 72.3359 18.918C72.4766 20.0898 72.5469 21.332 72.5469 22.6445ZM90.582 66.625H100.355V48.6953C100.801 49.1875 101.27 49.6328 101.762 50.0312C102.254 50.4297 102.77 50.793 103.309 51.1211C104.223 51.6367 105.207 52.0234 106.262 52.2812C107.34 52.5625 108.512 52.7031 109.777 52.7031C112.168 52.7031 114.289 52.2109 116.141 51.2266C117.992 50.2422 119.551 48.8828 120.816 47.1484C122.059 45.4375 122.996 43.3984 123.629 41.0312C124.285 38.6641 124.613 36.0977 124.613 33.332V32.5938C124.613 29.7109 124.285 27.0859 123.629 24.7188C122.996 22.3281 122.047 20.2773 120.781 18.5664C119.516 16.8789 117.957 15.5781 116.105 14.6641C114.254 13.7266 112.121 13.2578 109.707 13.2578C108.535 13.2578 107.434 13.3867 106.402 13.6445C105.395 13.8789 104.469 14.2188 103.625 14.6641C102.922 15.0391 102.266 15.4844 101.656 16C101.047 16.4922 100.484 17.0547 99.9688 17.6875L99.6172 13.9609H90.582V66.625ZM114.84 32.5938V33.332C114.84 34.9023 114.699 36.3906 114.418 37.7969C114.137 39.1797 113.691 40.3984 113.082 41.4531C112.473 42.5078 111.676 43.3398 110.691 43.9492C109.73 44.5586 108.559 44.8633 107.176 44.8633C106.309 44.8633 105.523 44.7812 104.82 44.6172C104.117 44.4297 103.496 44.1719 102.957 43.8438C102.395 43.4922 101.891 43.0703 101.445 42.5781C101.023 42.0859 100.66 41.5352 100.355 40.9258V25.0352C100.684 24.3789 101.07 23.8047 101.516 23.3125C101.984 22.8203 102.523 22.4102 103.133 22.082C103.672 21.8008 104.27 21.5898 104.926 21.4492C105.582 21.2852 106.309 21.2031 107.105 21.2031C108.488 21.2031 109.66 21.4961 110.621 22.082C111.605 22.668 112.414 23.4648 113.047 24.4727C113.656 25.5039 114.102 26.7227 114.383 28.1289C114.688 29.5117 114.84 31 114.84 32.5938ZM152.141 52.7031C155.82 52.7031 159.008 51.9883 161.703 50.5586C164.398 49.1289 166.367 47.5352 167.609 45.7773L162.723 40.5039C161.598 41.957 160.133 43.0469 158.328 43.7734C156.523 44.5 154.66 44.8633 152.738 44.8633C151.379 44.8633 150.125 44.6523 148.977 44.2305C147.828 43.8086 146.809 43.2109 145.918 42.4375C145.051 41.6875 144.359 40.8555 143.844 39.9414C143.328 39.0039 142.906 37.7734 142.578 36.25V36.1445H168.383V31.9961C168.383 29.207 167.996 26.6641 167.223 24.3672C166.449 22.0469 165.324 20.0664 163.848 18.4258C162.348 16.7852 160.52 15.5195 158.363 14.6289C156.23 13.7148 153.793 13.2578 151.051 13.2578C148.402 13.2578 145.953 13.7383 143.703 14.6992C141.453 15.6602 139.508 17.0078 137.867 18.7422C136.227 20.4766 134.949 22.5508 134.035 24.9648C133.121 27.3555 132.664 30.0039 132.664 32.9102V34.3164C132.664 36.8711 133.121 39.2734 134.035 41.5234C134.973 43.75 136.297 45.6836 138.008 47.3242C139.719 48.9883 141.77 50.3008 144.16 51.2617C146.551 52.2227 149.211 52.7031 152.141 52.7031ZM150.98 21.168C152.223 21.168 153.312 21.3672 154.25 21.7656C155.211 22.1406 156.02 22.6562 156.676 23.3125C157.332 23.9922 157.848 24.7891 158.223 25.7031C158.598 26.6172 158.785 27.5898 158.785 28.6211V29.3945H142.754C142.988 28.1523 143.34 27.0273 143.809 26.0195C144.277 25.0117 144.863 24.1445 145.566 23.418C146.246 22.6914 147.043 22.1406 147.957 21.7656C148.871 21.3672 149.879 21.168 150.98 21.168ZM176.926 52H186.734V24.9648C187.062 24.4492 187.426 23.9805 187.824 23.5586C188.223 23.1367 188.668 22.7734 189.16 22.4688C189.77 22.0469 190.461 21.7305 191.234 21.5195C192.031 21.3086 192.898 21.2031 193.836 21.2031C194.961 21.2031 195.969 21.3203 196.859 21.5547C197.75 21.7656 198.512 22.1523 199.145 22.7148C199.777 23.2773 200.258 24.0508 200.586 25.0352C200.938 25.9961 201.113 27.2266 201.113 28.7266V52H210.887V28.5859C210.887 25.8203 210.559 23.4766 209.902 21.5547C209.27 19.6094 208.379 18.0156 207.23 16.7734C206.059 15.5547 204.676 14.6641 203.082 14.1016C201.488 13.5391 199.73 13.2578 197.809 13.2578C196.309 13.2578 194.891 13.4688 193.555 13.8906C192.219 14.3125 190.988 14.9219 189.863 15.7188C189.207 16.1875 188.586 16.7148 188 17.3008C187.414 17.8867 186.875 18.5312 186.383 19.2344L185.785 13.9609H176.926V52Z" fill="black"/>
</svg>
