<svg width="56" height="57" viewBox="0 0 56 57" fill="none" xmlns="http://www.w3.org/2000/svg">
<path fill-rule="evenodd" clip-rule="evenodd" d="M56 28.683C56 44.1455 43.462 56.683 27.9991 56.683C12.5343 56.683 0 44.1455 0 28.683C0 13.2188 12.5343 0.683044 27.9991 0.683044C43.462 0.683044 56 13.2188 56 28.683" fill="url(#paint0_linear)"/>
<path fill-rule="evenodd" clip-rule="evenodd" d="M42.0261 20.257C41.3863 19.6172 40.3548 19.599 39.6928 20.2158L29.12 30.7886L23.5872 25.2558C22.9313 24.6007 21.8687 24.6007 21.2128 25.2558L13.9328 32.5358C13.316 33.1978 13.3342 34.2293 13.974 34.8691C14.6138 35.5088 15.6453 35.527 16.3072 34.9102L22.4 28.8174L27.9328 34.3502C28.5887 35.0053 29.6513 35.0053 30.3072 34.3502L42.0672 22.5902C42.684 21.9283 42.6658 20.8968 42.0261 20.257Z" fill="white"/>
<defs>
<linearGradient id="paint0_linear" x1="-28" y1="28.683" x2="28" y2="84.683" gradientUnits="userSpaceOnUse">
<stop stop-color="#0077FC"/>
<stop offset="1" stop-color="#095EB5"/>
</linearGradient>
</defs>
</svg>
