<svg width="100" height="100" viewBox="0 0 100 100" fill="none" xmlns="http://www.w3.org/2000/svg">
<path fill-rule="evenodd" clip-rule="evenodd" d="M99.9902 49.997C100.542 75.088 77.7039 99.5497 49.9951 99.9937C22.387 100.436 0 77.6093 0 49.997C0 22.3847 22.3833 0 49.9951 0C77.6069 0 99.3836 22.3913 99.9902 49.997" fill="black"/>
<path fill-rule="evenodd" clip-rule="evenodd" d="M25.7358 57.4179L24.6372 52.3356L68.1662 42.9236L69.2652 48.0059L25.7358 57.4179Z" fill="#FABF06"/>
<path fill-rule="evenodd" clip-rule="evenodd" d="M15.4162 36.6251L20.4545 19.5678L25.4412 21.0408L21.8758 33.1111L33.9465 36.6768L32.4735 41.6634L15.4162 36.6251Z" fill="#EF1E02"/>
<path fill-rule="evenodd" clip-rule="evenodd" d="M70.0656 31.5989C74.2069 23.0039 70.5839 12.6426 61.9889 8.50123C53.3939 4.3599 43.0323 7.9829 38.8913 16.5779C35.8483 22.8932 37.0016 30.1599 41.2349 35.2142L43.8309 29.8269C42.0589 26.5289 41.8299 22.4582 43.5753 18.8349C46.4723 12.8229 53.7199 10.2886 59.7316 13.1856C65.7436 16.0822 68.2783 23.3299 65.3813 29.3419C63.6356 32.9649 60.3089 35.3222 56.6259 35.9916L54.0299 41.3792C60.6209 41.5402 67.0226 37.9142 70.0656 31.5989" fill="#0657F9"/>
<path fill-rule="evenodd" clip-rule="evenodd" d="M50.6502 59.2136C41.4039 56.8626 31.9686 62.472 29.6172 71.7186C27.2666 80.9646 32.8759 90.4 42.1222 92.751C48.9162 94.4786 55.8089 91.9046 59.9212 86.7513L54.1256 85.2776C51.2452 87.6693 47.3012 88.7026 43.4036 87.7116C36.9359 86.067 33.0122 79.4673 34.6569 73C36.3016 66.5323 42.9012 62.6086 49.3686 64.253C53.2666 65.244 56.2376 68.036 57.6256 71.513L63.4212 72.9866C62.2696 66.495 57.4442 60.9413 50.6502 59.2136" fill="#0657F9"/>
<path fill-rule="evenodd" clip-rule="evenodd" d="M84.2052 69.985L70.4702 81.2843L67.1669 77.269L76.8862 69.273L68.8902 59.5533L72.9059 56.2496L84.2052 69.985Z" fill="#FBFAE8"/>
<path fill-rule="evenodd" clip-rule="evenodd" d="M88.9461 34.9064C88.9461 37.276 87.0251 39.197 84.6555 39.197C82.2858 39.197 80.3648 37.276 80.3648 34.9064C80.3648 32.5367 82.2858 30.6157 84.6555 30.6157C87.0251 30.6157 88.9461 32.5367 88.9461 34.9064" fill="#FABF06"/>
<path fill-rule="evenodd" clip-rule="evenodd" d="M51.2417 75.9822C51.2417 78.3519 49.3207 80.2729 46.951 80.2729C44.5814 80.2729 42.6604 78.3519 42.6604 75.9822C42.6604 73.6125 44.5814 71.6912 46.951 71.6912C49.3207 71.6912 51.2417 73.6125 51.2417 75.9822" fill="#FBFAE8"/>
<path fill-rule="evenodd" clip-rule="evenodd" d="M16.0389 58.1173C16.0389 60.487 14.1176 62.4083 11.7482 62.4083C9.37857 62.4083 7.45723 60.487 7.45723 58.1173C7.45723 55.7476 9.37857 53.8266 11.7482 53.8266C14.1176 53.8266 16.0389 55.7476 16.0389 58.1173" fill="#EF1E02"/>
</svg>
